<svg xmlns="http://www.w3.org/2000/svg" width="450" height="512" viewBox="0 0 450 512">
  <g id="delete" transform="translate(-31)">
    <path id="Path_1" data-name="Path 1" d="M46,180H91V497a14.991,14.991,0,0,0,15,15H406a14.991,14.991,0,0,0,15-15V180h45a15,15,0,0,0,0-30H46a15,15,0,0,0,0,30ZM181,452a15,15,0,0,1-30,0V210a15,15,0,0,1,30,0Zm90,0a15,15,0,0,1-30,0V210a15,15,0,0,1,30,0Zm90,0a15,15,0,0,1-30,0V210a15,15,0,0,1,30,0Z" fill="#fff"/>
    <path id="Path_2" data-name="Path 2" d="M451,75a14.991,14.991,0,0,0-15-15H331V15A14.991,14.991,0,0,0,316,0H196a14.991,14.991,0,0,0-15,15V60H76A14.991,14.991,0,0,0,61,75v45H451ZM211,30h90V60H211Z" fill="#fff"/>
  </g>
</svg>
